<svg width="30" height="30" viewBox="0 0 30 30" fill="none" xmlns="http://www.w3.org/2000/svg">
  <path d="M17.1698 0.0127753C17.6632 0.0138668 18.0474 0.42826 17.9952 0.903437L16.9416 10.5129C16.8843 11.0353 16.5676 11.4978 16.093 11.7523L11.315 14.3145C10.8537 14.5618 10.2985 14.5828 9.81871 14.3711L0.487305 10.2545C0.0355117 10.0552 -0.136633 9.51962 0.11858 9.1073L3.0108 4.43452C3.28587 3.99008 3.9165 3.90897 4.30188 4.26847L11.0789 10.5904C11.3989 10.8888 11.8828 10.9496 12.2707 10.7399C12.6673 10.5257 12.8672 10.0813 12.759 9.65418L10.5669 0.997452C10.4382 0.489162 10.8363 -0.0011852 11.3769 2.15196e-06L17.1698 0.0127753Z" fill="black"/>
  <path d="M0.106894 20.5314C-0.130295 20.1289 0.0420678 19.6149 0.47737 19.4267L9.28028 15.6185C9.75875 15.4115 10.3108 15.4448 10.7595 15.7076L15.2764 18.3542C15.7125 18.6098 15.9985 19.0515 16.0473 19.5452L16.9962 29.1426C17.0422 29.6073 16.6629 30.0075 16.1839 29.9999L10.7551 29.9138C10.2388 29.9057 9.86444 29.4315 9.9888 28.9432L12.1758 20.3548C12.279 19.9492 12.0979 19.5258 11.7298 19.3117C11.3536 19.0928 10.8736 19.1458 10.5571 19.4412L4.14264 25.43C3.76599 25.7815 3.15063 25.6954 2.89085 25.2548L0.106894 20.5314Z" fill="black"/>
  <path d="M27.0105 6.19196C26.7708 5.80204 26.2135 5.68666 25.8124 5.94399L17.7016 11.1479C17.2608 11.4308 16.999 11.8916 17 12.3829L17.0117 17.3276C17.0127 17.8052 17.2623 18.2538 17.6841 18.5372L25.8882 24.0464C26.2854 24.3131 26.849 24.2057 27.0954 23.8163L29.889 19.4032C30.1547 18.9835 29.9226 18.4478 29.4138 18.3064L20.4665 15.8208C20.044 15.7034 19.7556 15.3483 19.756 14.9459C19.7566 14.5348 20.0585 14.1745 20.4938 14.066L29.3193 11.863C29.8374 11.7336 30.0847 11.1956 29.8225 10.7686L27.0105 6.19196Z" fill="black"/>
</svg>
